<?xml version="1.0" encoding="utf-8"?>
<!-- Generator: Adobe Illustrator 25.3.1, SVG Export Plug-In . SVG Version: 6.00 Build 0)  -->
<svg version="1.1" id="Capa_1" xmlns="http://www.w3.org/2000/svg" xmlns:xlink="http://www.w3.org/1999/xlink" x="0px" y="0px"
	 viewBox="0 0 1000 1000" style="enable-background:new 0 0 1000 1000;" xml:space="preserve">
<style type="text/css">
	.st0{fill:#AA1DD3;}
</style>
<g id="kIz4XG.tif">
	<g>
		<path class="st0" d="M598.02,704.18c-1.49,58.46-7.58,116.2-26.18,171.98c-8.73,26.17-20.4,50.89-41.07,70.19
			c-23.96,22.37-43.86,22.59-67.96-0.57c-25.62-24.62-37.82-56.88-46.69-90.09c-17.1-64.03-21.74-129.75-20.54-195.65
			c1.01-55.07,47.28-98.92,101-99.25c52.52-0.32,96.61,40.19,101.22,94.07C599.2,671.19,598.02,687.74,598.02,704.18z"/>
		<path class="st0" d="M394.86,429.53c-0.27-57.82,47.89-104.69,106.95-104.08c51.45,0.53,97.71,48.7,98.24,102.29
			c0.55,56.08-46.56,103.43-103.04,103.56C441.34,531.44,395.12,485.4,394.86,429.53z"/>
		<g>
			<path class="st0" d="M917.96,412.11C896.78,194.54,700.5,27.35,477.26,37.19c-220.32,9.71-398.04,196.09-397.44,419
				c0.6,221.65,164.62,366.76,288.35,397.66c-3.89-18.88-7.12-37.85-9.75-56.88c-4.89-6.34-12.01-11.41-21.78-16.1
				c-138.63-66.58-220.49-225.6-196.28-376.94c33.28-208.1,226-341.67,434.27-300.98c192.72,37.65,323.29,238.13,279.57,429.5
				c-27.09,118.59-96.04,203.82-205.36,256.75c-4.23,2.05-9.59,2.73-12.71,6.45c-2.67,20.61-6.08,41.11-10.38,61.46
				C768.41,820.62,941.77,656.7,917.96,412.11z"/>
			<path class="st0" d="M764.45,397.08c-31-129.27-147.91-215.91-284.26-211.8c-123.97,3.73-234.81,101.29-257.85,226.32
				C198,543.63,277.76,658.63,349.49,692.78c-0.9-23.19-1.15-46.43-0.87-69.69c-1.08-1.62-2.43-3.23-4.12-4.89
				c-41.3-40.65-62.85-90.07-66.77-148c-9.43-139.14,126.62-256.42,262.51-225.37c84.46,19.3,142.5,69.54,166.72,152.93
				c24.64,84.8,3.22,159.55-60.05,221.8c-0.51,0.51-1.09,0.99-1.68,1.47c0.52,18.76-0.51,37.65-0.51,56.45
				c-0.13,5.14-0.29,10.27-0.47,15.4C727.36,647.83,795.38,526.09,764.45,397.08z"/>
		</g>
	</g>
</g>
</svg>
