<svg id="Isolation_Mode" data-name="Isolation Mode" xmlns="http://www.w3.org/2000/svg" width="131.0819" height="47.9668" viewBox="0 0 131.0819 47.9668"><defs><style>.cls-1{fill:#6b7375;}</style></defs><path class="cls-1" d="M26,121.832H152.0117l-20.875,20.874a1.1487,1.1487,0,0,0,1.625,1.6241l22.834-22.834a1.2521,1.2521,0,0,0,.1425-.1738c.0118-.0176.0176-.0362.0293-.0528a1.2639,1.2639,0,0,0,.0762-.145c.01-.0239.0156-.0513.0234-.0757a1.13,1.13,0,0,0,.043-.1387,1.1132,1.1132,0,0,0,0-.4541,1.0967,1.0967,0,0,0-.043-.14c-.0078-.0254-.0136-.0508-.0234-.0752a1.1867,1.1867,0,0,0-.0762-.1445c-.0117-.0176-.0175-.0362-.0293-.0528a1.2565,1.2565,0,0,0-.1425-.1743l-22.834-22.8335a1.1487,1.1487,0,0,0-1.625,1.624l20.875,20.8741H26a1.1489,1.1489,0,0,0,0,2.2978Z" transform="translate(-24.8516 -96.6992)"/></svg>