<svg id="Layer_1" data-name="Layer 1" xmlns="http://www.w3.org/2000/svg" width="216.0002" height="61.854" viewBox="0 0 216.0002 61.854"><defs><style>.cls-1{fill:#3f434e;fill-rule:evenodd;}</style></defs><g id="Page-1"><g id="Group"><path id="Fill-1" class="cls-1" d="M44.632,42.298c18.344-6.689,33.491-11.042,66.639-15.53,53.641-7.266,100.968-3.412,104.514,8.531a5.7735,5.7735,0,0,1-.662,4.558,4.9961,4.9961,0,0,0,.42-3.509c-3.01-11.296-49.351-15.195-103.48-8.411-33.42,4.189-51.627,9.383-67.431,14.361" transform="translate(-0.0002 -0.146)"/><path id="Fill-4" class="cls-1" d="M89.283,6.81V6.799h-.019V.146H82.309V4.584L74.016,1.938,65.938,4.52l.015.004L29.012,16.343V21.6l15.722-5.03-.047,25.71c2.538-1.678,28.206-13.084,59.049-16.588v-9.08l15.294,4.894V16.301L89.283,6.81" transform="translate(-0.0002 -0.146)"/><path id="Fill-5" class="cls-1" d="M22.218,55.168H17.5l2.574-6.3Zm6.006,6.211c-1.852-.142-2.259-.918-3.274-3.812L20.886,46.209a.1645.1645,0,0,0-.27,0L15.852,57.567c-1.106,2.705-1.693,3.692-3.205,3.812-.046.023-.091.305.022.281a11.5569,11.5569,0,0,1,2.235-.164,13.2982,13.2982,0,0,1,2.122.164c.113.024.068-.258,0-.281-1.038-.095-1.49-.261-1.49-.823a10.4211,10.4211,0,0,1,.971-2.989l.789-1.927h5.081l.676,1.927a11.9513,11.9513,0,0,1,.836,2.989c0,.659-.519.703-1.603.823-.045.023-.09.305.023.281a27.9573,27.9573,0,0,1,3.363-.164,19.3983,19.3983,0,0,1,2.529.164C28.336,61.684,28.269,61.402,28.224,61.379Z" transform="translate(-0.0002 -0.146)"/><path id="Fill-6" class="cls-1" d="M34.224,61.39c-1.829-.141-1.919-.354-1.919-3.811V50.524c0-3.457.09-3.668,1.919-3.833.044,0,.089-.283-.023-.257a19.3825,19.3825,0,0,1-2.529.165,29.1961,29.1961,0,0,1-3.432-.165c-.112-.026-.066.257-.022.257,2.281.283,2.325.165,2.325,3.833v7.055c0,3.645-.044,3.551-2.325,3.811-.044.024-.09.305.022.282a29.1961,29.1961,0,0,1,3.432-.165,19.3825,19.3825,0,0,1,2.529.165C34.313,61.695,34.268,61.414,34.224,61.39Zm9.29.282c.111.023.066-.258,0-.282-1.92-.166-2.597-.917-5.351-3.811l-4.041-4.186,2.551-2.869c2.528-2.892,3.161-3.668,5.057-3.833.045,0,.113-.283-.023-.257a14.5289,14.5289,0,0,1-1.896.117,19.9707,19.9707,0,0,1-2.529-.117c-.136-.026-.067.257-.023.257,1.017.142,1.49.189,1.152.848a20.3017,20.3017,0,0,1-2.392,2.985l-3.297,3.835,3.026,3.22a24.4969,24.4969,0,0,1,2.641,2.987c.383.658-.091.707-1.084.824-.068.024-.113.305,0,.282a28.4432,28.4432,0,0,1,3.363-.165A24.6337,24.6337,0,0,1,43.514,61.672Z" transform="translate(-0.0002 -0.146)"/><path id="Fill-8" class="cls-1" d="M10.968,56.73c0,3.262-1.474,4.312-4.32,4.312-1.94,0-2.173-.322-2.173-3.935V48.86a19.4994,19.4994,0,0,1,.233-3.934,5.095,5.095,0,0,1,1.06-.109c2.225,0,3.839.97,3.778,3.748-.06,2.715-1.308,3.394-4.123,3.005-.077-.011-.077.296,0,.296C8.909,51.742,10.968,54.034,10.968,56.73Zm1.992-.408c-.073-2.789-2.197-4.429-5.225-4.488,2.149-.334,3.702-1.943,3.702-3.615,0-2.614-2.253-3.941-5.048-3.941-.827,0-2.442.109-3.037.109a21.921,21.921,0,0,1-3.26-.191c-.156-.024-.077.299-.026.299,2.304.27,2.433.242,2.433,4.392v8.086c0,4.151-.129,4.125-2.433,4.367-.051.027-.13.35.026.323a26.9112,26.9112,0,0,1,3.561-.187c.596,0,2.4.105,3.253.105C10.684,61.581,13.04,59.286,12.96,56.322Z" transform="translate(-0.0002 -0.146)"/><path id="Fill-10" class="cls-1" d="M86.23,56.73c0,3.262-1.475,4.312-4.32,4.312-1.94,0-2.173-.322-2.173-3.935V48.86a19.4231,19.4231,0,0,1,.233-3.934,5.095,5.095,0,0,1,1.06-.109c2.225,0,3.84.97,3.778,3.748-.061,2.715-1.309,3.394-4.123,3.005-.077-.011-.078.296,0,.296C84.169,51.742,86.23,54.034,86.23,56.73Zm1.992-.408c-.074-2.789-2.198-4.429-5.226-4.488,2.149-.334,3.703-1.943,3.703-3.615,0-2.614-2.254-3.941-5.048-3.941-.827,0-2.443.109-3.038.109a21.9065,21.9065,0,0,1-3.259-.191c-.155-.024-.078.299-.026.299,2.302.27,2.431.242,2.431,4.392v8.086c0,4.151-.129,4.125-2.431,4.367-.052.027-.129.35.026.323a26.9112,26.9112,0,0,1,3.561-.187c.595,0,2.399.105,3.254.105C85.946,61.581,88.301,59.286,88.222,56.322Z" transform="translate(-0.0002 -0.146)"/><path id="Fill-11" class="cls-1" d="M213.184,59.047c0-.07-.248-.07-.272-.047-.315,1.575-.519,1.928-3.949,1.928h-1.151c-1.041,0-1.447-.281-1.447-3.434V53.99h2.349c2.099,0,2.212.328,2.348,1.081,0,.047.271.073.248,0-.024-.187-.046-.68-.046-.938a6.8391,6.8391,0,0,1,.158-1.485c.022-.043-.247-.02-.27,0-.135.638.043.871-2.438.871h-2.349V50.416a25.2857,25.2857,0,0,1,.137-3.223h2.168c2.933,0,3.383.355,3.564,1.413,0,.046.274.07.274,0-.024-.188-.047-.66-.047-.894a5.1164,5.1164,0,0,1,.136-1.27c-1.197.095-2.688.165-4.313.165-2.233,0-4.381-.049-5.98-.165-.138-.025-.07.259-.024.259,2.28.281,2.324.164,2.324,3.832v7.055c0,3.646-.044,3.551-2.324,3.811-.046.024-.114.305.024.282,1.599-.117,3.858-.164,6.07-.164,1.626,0,3.026.117,3.837.117.34,0,.43-.047.543-.425.135-.492.34-1.574.43-2.162" transform="translate(-0.0002 -0.146)"/><path id="Fill-12" class="cls-1" d="M54.515,59.035c0-.07-.249-.07-.272-.047-.315,1.577-.519,1.93-3.949,1.93H49.141c-1.039,0-1.445-.283-1.445-3.433V53.981h2.348c2.1,0,2.212.329,2.349,1.082,0,.046.269.07.247,0-.022-.188-.045-.683-.045-.941a6.6664,6.6664,0,0,1,.158-1.482c.023-.047-.248-.024-.27,0-.136.635.044.87-2.439.87H47.696V50.406a25.4978,25.4978,0,0,1,.136-3.221h2.167c2.935,0,3.386.351,3.567,1.411,0,.048.271.071.271,0-.022-.188-.044-.658-.044-.896a5.016,5.016,0,0,1,.135-1.268c-1.197.093-2.687.164-4.313.164-2.234,0-4.38-.047-5.982-.164-.135-.024-.068.258-.022.258,2.28.281,2.324.166,2.324,3.833v7.056c0,3.645-.044,3.551-2.324,3.809-.046.023-.113.306.022.284,1.602-.118,3.86-.167,6.072-.167,1.626,0,3.026.117,3.839.117.338,0,.428-.047.541-.422.136-.495.339-1.576.43-2.165" transform="translate(-0.0002 -0.146)"/><path id="Fill-13" class="cls-1" d="M128.464,61.356c-1.83-.141-1.919-.352-1.919-3.809V50.492c0-3.457.089-3.671,1.919-3.832.045,0,.091-.284-.024-.261a19.3538,19.3538,0,0,1-2.528.165,28.9514,28.9514,0,0,1-3.431-.165c-.114-.023-.069.261-.023.261,2.28.281,2.326.161,2.326,3.832v7.055c0,3.644-.046,3.551-2.326,3.809-.046.023-.091.306.023.281a29.2528,29.2528,0,0,1,3.431-.161,19.7762,19.7762,0,0,1,2.528.161C128.555,61.662,128.509,61.379,128.464,61.356Zm9.29.281c.111.025.067-.258,0-.281-1.919-.165-2.598-.917-5.35-3.809l-4.043-4.187,2.552-2.868c2.526-2.891,3.161-3.671,5.057-3.832.044,0,.112-.284-.024-.261a14.2992,14.2992,0,0,1-1.895.118,19.9519,19.9519,0,0,1-2.529-.118c-.136-.023-.067.261-.023.261,1.017.141,1.491.187,1.151.844a20.2114,20.2114,0,0,1-2.392,2.988l-3.297,3.832,3.026,3.223a24.726,24.726,0,0,1,2.643,2.985c.381.659-.091.706-1.086.824-.065.023-.112.306,0,.281a28.5436,28.5436,0,0,1,3.365-.161A25.225,25.225,0,0,1,137.754,61.637Z" transform="translate(-0.0002 -0.146)"/><path id="Fill-14" class="cls-1" d="M161.546,61.616c.129.029.079-.293,0-.32-2.678-.214-2.625-.351-2.625-4.344V48.907c0-3.993-.053-4.129,2.625-4.371.079,0,.129-.32,0-.296a30.2891,30.2891,0,0,1-3.346.188,25.7671,25.7671,0,0,1-3.474-.188c-.129-.024-.079.296,0,.296,1.981.242,2.185.27,2.185,4.371v3.621h-9.653V48.907c0-3.94.102-4.183,2.189-4.371.052,0,.128-.32-.024-.296a21.5533,21.5533,0,0,1-2.886.188,33.4791,33.4791,0,0,1-3.911-.188c-.129-.024-.076.296,0,.296,2.599.322,2.625.188,2.625,4.371v8.045c0,4.154-.026,4.049-2.625,4.344-.076.027-.129.349,0,.32a34.17,34.17,0,0,1,3.911-.187,22.0822,22.0822,0,0,1,2.886.187c.152.029.076-.293.024-.32-2.087-.16-2.189-.403-2.189-4.344V53.091h9.653v3.861c0,4.102-.204,4.13-2.185,4.344-.079.027-.129.349,0,.32a26.2891,26.2891,0,0,1,3.474-.187,31.06,31.06,0,0,1,3.346.187" transform="translate(-0.0002 -0.146)"/><path id="Fill-15" class="cls-1" d="M201.528,57.119c0-4.491-6.478-4.421-6.478-8.159a2.5556,2.5556,0,0,1,2.73-2.468,2.87,2.87,0,0,1,3.003,2.702c.024.047.273.047.273-.021a5.6107,5.6107,0,0,0-.273-2.495,5.18,5.18,0,0,0-2.845-.727,4.3087,4.3087,0,0,0-4.245,4.254c0,4.28,6.595,4.304,6.595,8.209a2.764,2.764,0,0,1-2.982,2.845c-2.324,0-3.566-1.623-3.724-4.069,0-.047-.272-.047-.272.025a29.7544,29.7544,0,0,0-.135,3.033,5.6,5.6,0,0,0,3.929,1.553,4.49,4.49,0,0,0,4.424-4.682" transform="translate(-0.0002 -0.146)"/><path id="Fill-16" class="cls-1" d="M193.254,46.675c.068,0,.114-.282-.024-.258a15.1522,15.1522,0,0,1-2.255.164,18.6874,18.6874,0,0,1-2.778-.164c-.134-.024-.091.258-.023.258,2.01.234,2.215.565,2.215,3.62V55.94c0,3.291-1.582,5.055-4.608,5.055-2.302,0-4.808-1.646-4.808-5.455V50.507c0-3.481.023-3.645,2.124-3.832.044,0,.111-.282-.024-.258a22.577,22.577,0,0,1-2.73.164,26.2881,26.2881,0,0,1-3.229-.164c-.114-.024-.07.258,0,.258,2.007.234,2.098.211,2.098,3.832v5.505a5.7048,5.7048,0,0,0,6.006,5.947,5.4547,5.4547,0,0,0,5.824-5.786V50.295c0-2.914.114-3.433,2.212-3.62" transform="translate(-0.0002 -0.146)"/><path id="Fill-17" class="cls-1" d="M120.993,54.597c0,4.303-2.484,6.843-5.847,6.843-3.185,0-6.458-2.704-6.458-7.924,0-4.304,2.485-6.844,5.848-6.844C117.697,46.672,120.993,49.376,120.993,54.597Zm1.828-.8a7.67,7.67,0,0,0-7.79-7.667,8.414,8.414,0,0,0-8.173,8.161,7.6688,7.6688,0,0,0,7.767,7.688A8.4192,8.4192,0,0,0,122.821,53.797Z" transform="translate(-0.0002 -0.146)"/><path id="Fill-18" class="cls-1" d="M175.289,54.526c0,4.304-2.484,6.844-5.848,6.844-3.181,0-6.457-2.704-6.457-7.925,0-4.303,2.485-6.841,5.848-6.841C171.993,46.604,175.289,49.306,175.289,54.526Zm1.828-.796a7.6692,7.6692,0,0,0-7.79-7.667,8.4111,8.4111,0,0,0-8.171,8.159,7.6692,7.6692,0,0,0,7.767,7.69A8.42,8.42,0,0,0,177.117,53.73Z" transform="translate(-0.0002 -0.146)"/><path id="Fill-19" class="cls-1" d="M103.604,54.596c0,4.304-2.483,6.844-5.847,6.844-3.183,0-6.457-2.707-6.457-7.925,0-4.303,2.483-6.843,5.848-6.843C100.308,46.672,103.604,49.375,103.604,54.596Zm1.829-.799a7.67,7.67,0,0,0-7.79-7.667,8.4116,8.4116,0,0,0-8.172,8.161,7.6673,7.6673,0,0,0,7.766,7.688A8.42,8.42,0,0,0,105.433,53.797Z" transform="translate(-0.0002 -0.146)"/><path id="Fill-20" class="cls-1" d="M60.653,54.105a2.1983,2.1983,0,0,1-.748-.126c-.06-.047-.036-.299.03-.381.286,0,.489.123.955.178,2.615.323,3.907-.932,3.907-2.932,0-3.268-2.099-3.988-4.311-3.988-.362,0-.632.024-1.017.047a16.3081,16.3081,0,0,0-.202,3.363v7.29c0,3.48.022,3.644,2.123,3.808.044.024.111.308-.024.283a22.7137,22.7137,0,0,0-2.732-.166,25.214,25.214,0,0,0-3.228.166c-.113.025-.068-.259-.022-.283,2.032-.211,2.122-.187,2.122-3.808V50.478c0-2.731-.099-3.715-1.385-3.715a2.88,2.88,0,0,0-.607.038c-.067,0-.113-.393,0-.44,2.474.172,2.849,0,5.265,0,3.161,0,5.735,1.011,5.735,3.575a4.6992,4.6992,0,0,1-3.071,4.21c1.174,3.433,4.673,7.573,7.18,7.573.045,0,.112.281-.022.281-5.102,0-7.647-3.539-8.617-7.254a2.02,2.02,0,0,0-1.331-.641" transform="translate(-0.0002 -0.146)"/></g></g></svg>