<svg id="Layer_1" data-name="Layer 1" xmlns="http://www.w3.org/2000/svg" width="50" height="41.5986" viewBox="0 0 50 41.5986"><defs><style>.cls-1{fill:#163567;}</style></defs><path class="cls-1" d="M196.14,444.8949l-.8008-.86a4.4023,4.4023,0,0,0-3.2842-1.6817H174.0706a3.0033,3.0033,0,0,1-3-3v-33h3v2h-1v31a1.0009,1.0009,0,0,0,1,1h18a5.9649,5.9649,0,0,1,3.9517,1.5577,5.5525,5.5525,0,0,1,4.0405-1.5577h18.0078a1.0009,1.0009,0,0,0,1-1v-31h-1v-2h3v33a3.0033,3.0033,0,0,1-3,3h-18a3.6708,3.6708,0,0,0-3.21,1.6133Z" transform="translate(-171.0706 -403.2963)"/><rect class="cls-1" x="23.8869" y="5.9863" width="2" height="30"/><path class="cls-1" d="M195.9954,440.42l-.4658-.2451c-5.9761-3.1465-8.9756-4.7256-19.4683-4.8223l-.9907-.0087V403.2963l1.0552.0586c10.8193.5977,12.1631,1.2637,19.8691,5.5019,7.34-4.0429,8.9034-4.8876,20.0205-5.5019l1.0552-.0586v32.0479l-.9907.0087c-10.6494.0967-13.939,1.83-19.3892,4.7012Zm-18.9248-7.0537c9.9209.1914,13.3316,1.8526,18.9248,4.794,5.2251-2.752,8.8628-4.5918,19.0752-4.793V405.4115c-9.7246.5782-11.0278,1.2959-18.1767,5.2334l-.8985.4952-.6386-.3516c-7.5518-4.1543-8.7481-4.8135-18.2862-5.377Z" transform="translate(-171.0706 -403.2963)"/></svg>