<svg id="Isolation_Mode" data-name="Isolation Mode" xmlns="http://www.w3.org/2000/svg" width="89.6136" height="133.8011" viewBox="0 0 89.6136 133.8011"><defs><style>.cls-1{fill:#414042;}.cls-2{fill:#fc2130;}</style></defs><path class="cls-1" d="M328.6226,243.8505h-59.836a6.0849,6.0849,0,0,0-6.0849,6.0849V355.1179a6.0849,6.0849,0,0,0,6.0849,6.0849H281.93a1.7386,1.7386,0,0,0,1.7386-1.7386v-2.6079a1.7385,1.7385,0,0,0-1.7386-1.7384H268.7866V249.9354h53.8516v19.5762a6.0849,6.0849,0,0,0,6.0849,6.0849H346.23v79.5214H331.9173a1.7385,1.7385,0,0,0-1.7385,1.7384v2.6079a1.7386,1.7386,0,0,0,1.7385,1.7386H346.23a6.0849,6.0849,0,0,0,6.0849-6.0849V270.0513a6.0855,6.0855,0,0,0-1.5063-4.0079l-17.6077-20.1158A6.0852,6.0852,0,0,0,328.6226,243.8505Zm.1005,25.6611V250.0571l17.0379,19.4545Z" transform="translate(-262.7017 -243.8505)"/><path class="cls-2" d="M325.4705,361.6855,308.08,377.21a1.7384,1.7384,0,0,1-2.3156,0L288.373,361.6855a1.7385,1.7385,0,0,1,1.1578-3.0354h5.0037a1.7386,1.7386,0,0,0,1.7386-1.7386V334.9826a1.7386,1.7386,0,0,1,1.7385-1.7386h17.82a1.7386,1.7386,0,0,1,1.7385,1.7386v21.9289a1.7386,1.7386,0,0,0,1.7386,1.7386h5.0038A1.7385,1.7385,0,0,1,325.4705,361.6855Z" transform="translate(-262.7017 -243.8505)"/></svg>