<svg id="Layer_1" data-name="Layer 1" xmlns="http://www.w3.org/2000/svg" width="56" height="47.7395" viewBox="0 0 56 47.7395"><defs><style>.cls-1{fill:#163567;}</style></defs><path class="cls-1" d="M271.9575,86.0221V77.2826H243.51c-3.1757,0-5.5529-3.029-5.5529-6.0607V43.2536c0-2.999,2.3225-4.971,5.5529-4.971h44.2823c3.23,0,6.1648,1.972,6.1648,4.971V71.2219a6.4992,6.4992,0,0,1-6.1648,6.0607h-3.6709ZM243.51,40.2826c-2.1279,0-3.5529,1.075-3.5529,2.971V71.2219c0,1.9477,1.4611,4.0607,3.5529,4.0607h30.4471v6.7767l9.5061-6.7767h4.3291a4.4849,4.4849,0,0,0,4.1648-4.0607V43.2536c0-1.896-2.0369-2.971-4.1648-2.971Z" transform="translate(-237.9575 -38.2826)"/><path class="cls-1" d="M283.6515,50.2826h-36a1,1,0,0,1,0-2h36a1,1,0,0,1,0,2Z" transform="translate(-237.9575 -38.2826)"/><path class="cls-1" d="M283.6515,57.2826h-36a1,1,0,0,1,0-2h36a1,1,0,0,1,0,2Z" transform="translate(-237.9575 -38.2826)"/><path class="cls-1" d="M272.6515,65.2826h-25a1,1,0,0,1,0-2h25a1,1,0,0,1,0,2Z" transform="translate(-237.9575 -38.2826)"/></svg>