<?xml version="1.0" encoding="utf-8"?>
<!-- Generator: Adobe Illustrator 25.2.1, SVG Export Plug-In . SVG Version: 6.00 Build 0)  -->
<svg version="1.1" id="Layer_1" xmlns="http://www.w3.org/2000/svg" xmlns:xlink="http://www.w3.org/1999/xlink" x="0px" y="0px"
	 viewBox="0 0 70 70" style="enable-background:new 0 0 70 70;" xml:space="preserve">
<style type="text/css">
	.st0{fill:none;stroke:#5D5D5D;stroke-width:2;stroke-linejoin:round;}
</style>
<g>
	<circle class="st0" cx="35" cy="47.34" r="6.05"/>
	<circle class="st0" cx="50.73" cy="40.08" r="6.05"/>
	<circle class="st0" cx="19.27" cy="40.08" r="6.05"/>
	<path class="st0" d="M43.47,67.9c2,0,3.63-1.62,3.63-3.63v-3.63c0-1.83-1.18-3.18-2.91-3.76c-0.79-0.26-3.13-1.08-3.13-1.08
		L35,61.85l-6.05-6.05c0,0-2.35,0.81-3.13,1.08c-1.73,0.58-2.91,1.93-2.91,3.76v3.63c0,2,1.62,3.63,3.63,3.63H43.47z"/>
	<path class="st0" d="M29.75,50.28c-0.38-0.27-0.81-0.5-1.29-0.66c-0.79-0.26-3.13-1.08-3.13-1.08l-6.05,6.05l-6.05-6.05
		c0,0-2.35,0.81-3.13,1.08c-1.73,0.58-2.91,1.93-2.91,3.76v3.63c0,2,1.62,3.63,3.63,3.63h12.1"/>
	<path class="st0" d="M47.1,60.64h12.1c2,0,3.63-1.62,3.63-3.63v-3.63c0-1.83-1.18-3.18-2.91-3.76c-0.79-0.26-3.13-1.08-3.13-1.08
		l-6.05,6.05l-6.05-6.05c0,0-2.35,0.81-3.13,1.08c-0.48,0.16-0.91,0.39-1.29,0.66"/>
	<path class="st0" d="M63.21,43.71c1.3-3.38,2.03-7.05,2.03-10.89C65.24,16.12,51.7,2.58,35,2.58S4.76,16.12,4.76,32.82
		c0,3.84,0.72,7.51,2.03,10.89"/>
	<path class="st0" d="M51.94,29.19C50.92,14.2,43.73,2.58,35,2.58c-8.73,0-15.92,11.62-16.94,26.61"/>
	<line class="st0" x1="62.16" y1="19.51" x2="7.84" y2="19.51"/>
	<line class="st0" x1="35" y1="2.58" x2="35" y2="36.45"/>
</g>
</svg>
