<?xml version="1.0" encoding="utf-8"?>
<!-- Generator: Adobe Illustrator 25.2.0, SVG Export Plug-In . SVG Version: 6.00 Build 0)  -->
<svg version="1.1" id="Layer_1" xmlns="http://www.w3.org/2000/svg" xmlns:xlink="http://www.w3.org/1999/xlink" x="0px" y="0px"
	 viewBox="0 0 290 30" style="enable-background:new 0 0 290 30;" xml:space="preserve">
<style type="text/css">
	.st0{fill:#FFFFFF;}
</style>
<g>
	<path class="st0" d="M8.16,25.69c0.48,0.04,1,0.04,1.44,0.04c1.89-0.11,3.04-1,3.04-3.63V2.41h2.85v19.51
		c0,4.85-2.41,6.37-5.51,6.44c-0.67,0-1.18,0.04-1.81-0.04V25.69z"/>
	<path class="st0" d="M34.21,23.1l-1,5.22h-2.66l4.96-25.91h4.18l4.96,25.91h-2.89l-1-5.22H34.21z M34.58,20.62h5.77L37.43,5.66
		L34.58,20.62z"/>
	<path class="st0" d="M71.07,8.62v0.7h-2.74V8.48c0-2.33-0.89-3.7-2.96-3.7c-2.07,0-2.96,1.37-2.96,3.66c0,5.81,8.7,6.37,8.7,13.66
		c0,3.92-1.89,6.48-5.85,6.48c-3.96,0-5.81-2.55-5.81-6.48v-1.48h2.7v1.63c0,2.33,0.96,3.7,3.04,3.7c2.07,0,3.03-1.37,3.03-3.7
		c0-5.77-8.66-6.33-8.66-13.62c0-4,1.85-6.48,5.74-6.48C69.22,2.15,71.07,4.7,71.07,8.62z"/>
	<path class="st0" d="M86.35,8.66c0-3.96,1.96-6.51,5.92-6.51c4,0,5.96,2.55,5.96,6.51v13.4c0,3.92-1.96,6.51-5.96,6.51
		c-3.96,0-5.92-2.59-5.92-6.51V8.66z M89.2,22.21c0,2.37,1,3.74,3.07,3.74c2.11,0,3.07-1.37,3.07-3.74V8.51
		c0-2.33-0.96-3.74-3.07-3.74c-2.07,0-3.07,1.41-3.07,3.74V22.21z"/>
	<path class="st0" d="M116.47,28.32h-2.59V2.41h3.66l6,18.73V2.41h2.55v25.91h-3l-6.63-20.95V28.32z"/>
	<path class="st0" d="M165.29,19.03l-5.48-16.62h3l4.03,12.73l4.07-12.73h2.74l-5.52,16.62v9.29h-2.85V19.03z"/>
	<path class="st0" d="M187.89,8.66c0-3.96,1.96-6.51,5.92-6.51c4,0,5.96,2.55,5.96,6.51v13.4c0,3.92-1.96,6.51-5.96,6.51
		c-3.96,0-5.92-2.59-5.92-6.51V8.66z M190.74,22.21c0,2.37,1,3.74,3.07,3.74c2.11,0,3.07-1.37,3.07-3.74V8.51
		c0-2.33-0.96-3.74-3.07-3.74c-2.07,0-3.07,1.41-3.07,3.74V22.21z"/>
	<path class="st0" d="M218.2,22.21c0,2.33,0.92,3.74,3.04,3.74c2.07,0,3-1.41,3-3.74V2.41h2.7v19.66c0,3.92-1.81,6.55-5.81,6.55
		c-3.96,0-5.77-2.63-5.77-6.55V2.41h2.85V22.21z"/>
	<path class="st0" d="M245.29,28.32h-2.59V2.41h3.66l6,18.73V2.41h2.55v25.91h-3l-6.63-20.95V28.32z"/>
	<path class="st0" d="M282.26,8.66v2.22h-2.74V8.51c0-2.33-0.93-3.74-3.04-3.74c-2.07,0-3.04,1.41-3.04,3.74v13.7
		c0,2.33,0.96,3.74,3.04,3.74c2.11,0,3.04-1.41,3.04-3.74v-5.18h-2.67v-2.59h5.4v7.63c0,3.92-1.85,6.51-5.85,6.51
		c-3.96,0-5.81-2.59-5.81-6.51V8.66c0-3.92,1.85-6.51,5.81-6.51C280.41,2.15,282.26,4.74,282.26,8.66z"/>
</g>
</svg>
