<svg id="Layer_1" data-name="Layer 1" xmlns="http://www.w3.org/2000/svg" width="50" height="44" viewBox="0 0 50 44"><defs><style>.cls-1{fill:#163567;}</style></defs><path class="cls-1" d="M141.0427,83.9186H104.6291a3.0033,3.0033,0,0,1-3-3v-36a5.0059,5.0059,0,0,1,5-5h40a5.0059,5.0059,0,0,1,5,5V73.3332Zm-34.4136-42a3.0033,3.0033,0,0,0-3,3v36a1.0013,1.0013,0,0,0,1,1h35.5855l9.4145-9.4135V44.9186a3.0033,3.0033,0,0,0-3-3Z" transform="translate(-101.6291 -39.9186)"/><rect class="cls-1" x="1" y="11" width="6" height="2"/><rect class="cls-1" x="11" y="11" width="11" height="2"/><rect class="cls-1" x="25" y="11" width="13" height="2"/><rect class="cls-1" x="41" y="11" width="8" height="2"/><rect class="cls-1" x="39.9795" y="9" width="2" height="6"/><rect class="cls-1" x="9" y="9" width="2" height="6"/><rect class="cls-1" x="23.9966" y="9" width="2" height="6"/><path class="cls-1" d="M124.5822,76.5324A23.08,23.08,0,0,1,129.57,61.8757h-7.1172v-2h9.39a1,1,0,0,1,.6621,1.7495,20.8532,20.8532,0,0,0-5.9219,14.8935Z" transform="translate(-101.6291 -39.9186)"/><path class="cls-1" d="M140.6291,83.9186a1,1,0,0,1-1-1v-8a3.0033,3.0033,0,0,1,3-3h8a1,1,0,0,1,.707,1.7071l-10,10A.9987.9987,0,0,1,140.6291,83.9186Zm2-10a1.0013,1.0013,0,0,0-1,1v5.586l6.5859-6.586Z" transform="translate(-101.6291 -39.9186)"/></svg>