<svg id="Icons" xmlns="http://www.w3.org/2000/svg" width="0.7778in" height="0.7222in" viewBox="0 0 56 52"><defs><style>.cls-1,.cls-2{fill:none;stroke:#37464c;stroke-linejoin:round;stroke-width:2px;}.cls-2{stroke-linecap:round;}</style></defs><circle class="cls-1" cx="18" cy="6" r="5"/><path class="cls-1" d="M177.5963,285.47l-4.1284-4.92A2,2,0,0,1,173,279.2648V268a5,5,0,0,0-5-5h-1.3431a4,4,0,0,0-2.8285,1.1716l-5.6568,5.6568A4,4,0,0,0,157,272.6569V279a2,2,0,0,0,2,2h0a2,2,0,0,0,2-2v-5.5858a1,1,0,0,1,.2929-.7071L165,269v8.6092a6,6,0,0,0,1.4037,3.8567l6.3624,7.5824a1,1,0,0,1,.2339.6428V297.83a3.1144,3.1144,0,0,0,2.8387,3.1655A3,3,0,0,0,179,298v-8.6729A6,6,0,0,0,177.5963,285.47Z" transform="translate(-152 -250)"/><path class="cls-1" d="M173,273.8284l6.5858,6.5858a2,2,0,0,0,2.8284-2.8284L173,268.1716" transform="translate(-152 -250)"/><polyline class="cls-2" points="51 45 51 21 55 21 48 9 41 21 45 21 45 39 39 39 39 45 33 45 33 51 17 51"/><rect class="cls-1" x="1" y="31" width="12" height="8" rx="1"/><path class="cls-1" d="M162.0837,289l-2.902,7.9731a3,3,0,0,0,5.6382,2.0521l4.9367-13.5635" transform="translate(-152 -250)"/><line class="cls-1" x1="13.4297" y1="29.8069" x2="12.8251" y2="31.4679"/></svg>