<svg id="Layer_1" data-name="Layer 1" xmlns="http://www.w3.org/2000/svg" width="36" height="58.3878" viewBox="0 0 36 58.3878"><defs><style>.cls-1{fill:#163567;}</style></defs><path class="cls-1" d="M56.64,438.8948a13.0147,13.0147,0,0,1-13-13v-18a13,13,0,0,1,26,0v18A13.0148,13.0148,0,0,1,56.64,438.8948Zm0-42a11.0124,11.0124,0,0,0-11,11v18a11,11,0,0,0,22,0v-18A11.0125,11.0125,0,0,0,56.64,396.8948Z" transform="translate(-38.6395 -394.8948)"/><path class="cls-1" d="M56.64,444.8948a18.0206,18.0206,0,0,1-18-18v-8h2v8a16,16,0,0,0,32,0v-8h2v8A18.0206,18.0206,0,0,1,56.64,444.8948Z" transform="translate(-38.6395 -394.8948)"/><rect class="cls-1" x="6.318" y="12.3878" width="6" height="2"/><rect class="cls-1" x="6.318" y="28.3878" width="6" height="2"/><rect class="cls-1" x="6.318" y="20.3878" width="6" height="2"/><rect class="cls-1" x="24.318" y="12.3878" width="6" height="2"/><rect class="cls-1" x="24.318" y="28.3878" width="6" height="2"/><rect class="cls-1" x="24.318" y="20.3878" width="6" height="2"/><rect class="cls-1" x="17.318" y="48.3878" width="2" height="9"/><rect class="cls-1" x="10.318" y="56.3878" width="16" height="2"/></svg>