<svg id="black" xmlns="http://www.w3.org/2000/svg" width="56.1953" height="56.1956" viewBox="0 0 56.1953 56.1956"><defs><style>.cls-1{fill:#fff;}</style></defs><path class="cls-1" d="M59.476-33.2594,44.1812-20.5141c-1.7442,1.4549-3.1589.7924-3.1589-1.4791V-48.0349c0-2.2716,1.4147-2.9342,3.1589-1.4791L59.476-36.7687a2.2005,2.2005,0,0,1,0,3.5093ZM47.1887-63.1118A28.0983,28.0983,0,0,0,19.0924-35.0142,28.0985,28.0985,0,0,0,47.1887-6.9162a28.0991,28.0991,0,0,0,28.099-28.098,28.0989,28.0989,0,0,0-28.099-28.0976Z" transform="translate(-19.0924 63.1118)"/></svg>