<?xml version="1.0" encoding="utf-8"?>
<!-- Generator: Adobe Illustrator 25.2.1, SVG Export Plug-In . SVG Version: 6.00 Build 0)  -->
<svg version="1.1" id="Layer_1" xmlns="http://www.w3.org/2000/svg" xmlns:xlink="http://www.w3.org/1999/xlink" x="0px" y="0px"
	 viewBox="0 0 70 70" style="enable-background:new 0 0 70 70;" xml:space="preserve">
<style type="text/css">
	.st0{fill:none;stroke:#5D5D5D;stroke-width:2;stroke-linejoin:round;}
</style>
<g>
	<circle class="st0" cx="34.96" cy="44.93" r="5.61"/>
	<path class="st0" d="M47.29,60.63v-3.59c0-1.21-0.77-2.28-1.92-2.66l-4.81-1.6l-5.61,5.61l-5.61-5.61l-4.81,1.6
		c-1.14,0.38-1.92,1.45-1.92,2.66v3.59c0,1.86,1.51,3.36,3.36,3.36h17.95C45.79,64,47.29,62.49,47.29,60.63z"/>
	<circle class="st0" cx="14.77" cy="15.77" r="5.61"/>
	<path class="st0" d="M27.11,31.47v-3.59c0-1.21-0.77-2.28-1.92-2.66l-4.81-1.6l-5.61,5.61l-5.61-5.61l-4.81,1.6
		c-1.14,0.38-1.92,1.45-1.92,2.66v3.59c0,1.86,1.51,3.36,3.36,3.36h17.95C25.6,34.83,27.11,33.33,27.11,31.47z"/>
	<circle class="st0" cx="55.15" cy="15.77" r="5.61"/>
	<path class="st0" d="M67.48,31.47v-3.59c0-1.21-0.77-2.28-1.92-2.66l-4.81-1.6l-5.61,5.61l-5.61-5.61l-4.81,1.6
		c-1.14,0.38-1.92,1.45-1.92,2.66v3.59c0,1.86,1.51,3.36,3.36,3.36h17.95C65.98,34.83,67.48,33.33,67.48,31.47z"/>
	<path class="st0" d="M46.59,10.44c-3.54-1.62-7.48-2.53-11.63-2.53s-8.09,0.91-11.63,2.53"/>
	<path class="st0" d="M51.78,58.38c5.96-4.48,10.08-11.28,11.01-19.06"/>
	<path class="st0" d="M7.12,39.32c0.93,7.78,5.05,14.58,11.01,19.06"/>
</g>
</svg>
